# Blender v2.79 (sub 0) OBJ File: 'Crystal5.blend'
# www.blender.org
mtllib Crystal5.mtl
o Circle_Circle.007
v -0.000000 0.000000 -1.647036
v -1.426375 0.000000 -0.823518
v -1.426375 0.000000 0.823518
v 0.000000 0.000000 1.647036
v 1.426375 0.000000 0.823518
v 1.376961 0.225393 -1.025635
v -1.704999 4.000273 -1.271297
v -0.199264 5.769611 -2.465710
v -2.232484 7.312672 1.288926
v 0.257562 4.207796 2.625712
v 1.145028 7.262240 0.861800
v 2.496151 5.809639 -1.329612
v -1.621471 9.573959 -0.936157
v 0.188591 9.526321 -1.784249
v -1.798709 9.547692 0.973297
v 0.016850 9.879765 1.794898
v 1.604621 9.268154 1.013571
v 1.621470 9.573959 -0.936157
v -0.361141 10.536286 -0.208505
v 0.000000 10.863328 -0.417009
v -0.538379 10.510019 0.245645
v 0.020583 11.440508 0.608256
v 0.381723 11.440508 0.399751
v 0.361141 10.863328 -0.208505
vn 0.0390 -0.9990 -0.0225
vn 0.9520 0.0398 0.3035
vn -0.9942 -0.0953 -0.0497
vn 0.9454 -0.0550 0.3213
vn -0.5556 -0.1294 0.8213
vn -0.5051 -0.1352 -0.8524
vn 0.4000 -0.1222 -0.9083
vn 0.7753 -0.0542 0.6293
vn 0.3513 0.6946 -0.6278
vn -0.3689 0.1422 0.9185
vn -0.5644 0.1175 -0.8171
vn 0.4253 0.1550 -0.8917
vn 0.6949 0.0437 0.7177
vn -0.9772 0.0652 -0.2020
vn -0.5105 0.7375 -0.4421
vn 0.5116 0.5030 0.6966
vn -0.6052 0.7927 -0.0732
vn 0.8100 0.5831 -0.0630
vn -0.5861 0.6552 0.4766
vn -0.3787 0.7135 -0.5895
usemtl None
s off
f 2//1 1//1 6//1 5//1 4//1 3//1
f 11//2 12//2 18//2 17//2
f 2//3 3//3 9//3 7//3
f 5//4 6//4 12//4 11//4
f 3//5 4//5 10//5 9//5
f 1//6 2//6 7//6 8//6
f 6//7 1//7 8//7 12//7
f 4//8 5//8 11//8 10//8
f 18//9 14//9 20//9 24//9
f 9//10 10//10 16//10 15//10
f 8//11 7//11 13//11 14//11
f 12//12 8//12 14//12 18//12
f 10//13 11//13 17//13 16//13
f 7//14 9//14 15//14 13//14
f 19//15 21//15 22//15 23//15 24//15 20//15
f 16//16 17//16 23//16 22//16
f 13//17 15//17 21//17 19//17
f 17//18 18//18 24//18 23//18
f 15//19 16//19 22//19 21//19
f 14//20 13//20 19//20 20//20
