# Blender v2.79 (sub 0) OBJ File: 'Crystal8.blend'
# www.blender.org
mtllib Crystal8.mtl
o Circle_Circle.011
v -0.681144 0.012529 -2.415734
v -1.992049 0.000000 -1.150110
v -1.992049 0.000000 1.150110
v 0.000000 -1.028751 2.285924
v 1.992049 0.000000 1.150110
v 1.992049 0.000000 -1.150110
v -1.180959 7.382641 -0.414472
v 0.087990 6.188523 -2.147829
v -1.614787 6.251712 0.932298
v 0.000000 5.762298 1.878891
v 1.766306 6.320425 0.834636
v 1.463269 7.093999 -0.834636
v -0.099054 9.809071 -0.268254
v 0.339820 8.708687 -1.044506
v -0.258380 9.872991 0.149176
v 0.000000 9.872991 0.298352
v 0.258380 9.872991 0.149176
v 0.515731 8.882133 -0.877218
vn -0.0000 -0.9891 -0.1471
vn -0.9269 0.3641 -0.0914
vn 0.5327 0.0275 -0.8458
vn 0.4830 0.0565 0.8738
vn -0.9919 0.0899 -0.0901
vn 0.9963 0.0560 -0.0651
vn -0.4815 0.0558 0.8747
vn -0.7244 0.1345 -0.6761
vn 0.3176 0.7808 -0.5381
vn 0.9100 0.4118 -0.0486
vn -0.4103 0.3317 0.8495
vn -0.5995 0.3442 -0.7226
vn 0.5523 0.2823 -0.7844
vn 0.4094 0.3319 0.8498
usemtl None
s off
f 2//1 1//1 6//1 5//1 4//1 3//1
f 7//2 9//2 15//2 13//2
f 6//3 1//3 8//3 12//3
f 4//4 5//4 11//4 10//4
f 2//5 3//5 9//5 7//5
f 5//6 6//6 12//6 11//6
f 3//7 4//7 10//7 9//7
f 1//8 2//8 7//8 8//8
f 13//9 15//9 16//9 17//9 18//9 14//9
f 11//10 12//10 18//10 17//10
f 9//11 10//11 16//11 15//11
f 8//12 7//12 13//12 14//12
f 12//13 8//13 14//13 18//13
f 10//14 11//14 17//14 16//14
