# Blender v2.79 (sub 0) OBJ File: 'Crystal1.blend'
# www.blender.org
mtllib Crystal1.mtl
o Circle_Circle.003
v -0.025625 0.117312 -0.985236
v -0.825065 0.111357 -0.490125
v -0.845901 0.006840 0.526089
v 0.075087 -0.018125 0.972318
v 0.937382 0.018501 0.467932
v 0.866027 -0.002805 -0.500699
v -0.859446 3.855680 -0.539309
v -0.008151 3.858507 -0.985236
v -0.882440 3.986146 0.473818
v -0.071256 3.958542 1.032725
v 0.790835 4.000745 0.528423
v 0.881576 3.992462 -0.500699
v -0.046169 6.107950 -0.026655
v -0.016509 6.104471 -0.053311
v -0.046169 6.107950 0.026655
v -0.000000 6.107950 0.053311
v 0.046168 6.107950 0.026655
v 0.029654 6.105170 -0.026655
vn -0.0306 -0.9978 -0.0581
vn 0.9335 0.3536 0.0604
vn -0.9997 -0.0095 -0.0215
vn 0.9998 0.0163 0.0095
vn -0.5021 -0.0124 0.8647
vn -0.4952 -0.0068 -0.8687
vn 0.4779 -0.0020 -0.8784
vn 0.5047 0.0055 0.8633
vn 0.0165 0.9993 -0.0325
vn -0.5163 0.3680 0.7733
vn -0.4435 0.3450 -0.8272
vn 0.4091 0.3523 -0.8418
vn 0.4593 0.3559 0.8139
vn -0.9335 0.3530 -0.0633
usemtl None
s off
f 2//1 1//1 6//1 5//1 4//1 3//1
f 11//2 12//2 18//2 17//2
f 2//3 3//3 9//3 7//3
f 5//4 6//4 12//4 11//4
f 3//5 4//5 10//5 9//5
f 1//6 2//6 7//6 8//6
f 6//7 1//7 8//7 12//7
f 4//8 5//8 11//8 10//8
f 13//9 15//9 16//9 17//9 18//9 14//9
f 9//10 10//10 16//10 15//10
f 8//11 7//11 13//11 14//11
f 12//12 8//12 14//12 18//12
f 10//13 11//13 17//13 16//13
f 7//14 9//14 15//14 13//14
